# This file uses centimeters as units for non-parametric coordinates.

mtllib signboard.mtl
g default
v 12.397604 -9.028531 0.202874
v 13.020704 -9.028531 0.202874
v 12.397604 4.945856 0.202874
v 13.020704 4.945856 0.202874
v 12.397604 4.945856 -0.248193
v 13.020704 4.945856 -0.248193
v 12.397604 -9.028531 -0.248193
v 13.020704 -9.028531 -0.248193
vt 0.375000 0.000000
vt 0.625000 0.000000
vt 0.625000 0.250000
vt 0.375000 0.250000
vt 0.625000 0.500000
vt 0.375000 0.500000
vt 0.625000 0.750000
vt 0.375000 0.750000
vt 0.625000 1.000000
vt 0.375000 1.000000
vt 0.875000 0.000000
vt 0.875000 0.250000
vt 0.125000 0.000000
vt 0.125000 0.250000
vn 0.000000 0.000000 1.000000
vn 0.000000 0.000000 1.000000
vn 0.000000 0.000000 1.000000
vn 0.000000 0.000000 1.000000
vn 0.000000 1.000000 0.000000
vn 0.000000 1.000000 0.000000
vn 0.000000 1.000000 0.000000
vn 0.000000 1.000000 0.000000
vn 0.000000 0.000000 -1.000000
vn 0.000000 0.000000 -1.000000
vn 0.000000 0.000000 -1.000000
vn 0.000000 0.000000 -1.000000
vn 0.000000 -1.000000 0.000000
vn 0.000000 -1.000000 0.000000
vn 0.000000 -1.000000 0.000000
vn 0.000000 -1.000000 0.000000
vn 1.000000 0.000000 0.000000
vn 1.000000 0.000000 0.000000
vn 1.000000 0.000000 0.000000
vn 1.000000 0.000000 0.000000
vn -1.000000 0.000000 0.000000
vn -1.000000 0.000000 0.000000
vn -1.000000 0.000000 0.000000
vn -1.000000 0.000000 0.000000
s off
g pCube3
usemtl initialShadingGroup1
f 1/1/1 2/2/2 4/3/3 3/4/4
f 3/4/5 4/3/6 6/5/7 5/6/8
f 5/6/9 6/5/10 8/7/11 7/8/12
f 7/8/13 8/7/14 2/9/15 1/10/16
f 2/2/17 8/11/18 6/12/19 4/3/20
f 7/13/21 1/1/22 3/4/23 5/14/24
g default
v -12.901282 -9.028531 0.202874
v -12.278182 -9.028531 0.202874
v -12.901282 4.945856 0.202874
v -12.278182 4.945856 0.202874
v -12.901282 4.945856 -0.248193
v -12.278182 4.945856 -0.248193
v -12.901282 -9.028531 -0.248193
v -12.278182 -9.028531 -0.248193
vt 0.375000 0.000000
vt 0.625000 0.000000
vt 0.625000 0.250000
vt 0.375000 0.250000
vt 0.625000 0.500000
vt 0.375000 0.500000
vt 0.625000 0.750000
vt 0.375000 0.750000
vt 0.625000 1.000000
vt 0.375000 1.000000
vt 0.875000 0.000000
vt 0.875000 0.250000
vt 0.125000 0.000000
vt 0.125000 0.250000
vn 0.000000 0.000000 1.000000
vn 0.000000 0.000000 1.000000
vn 0.000000 0.000000 1.000000
vn 0.000000 0.000000 1.000000
vn 0.000000 1.000000 0.000000
vn 0.000000 1.000000 0.000000
vn 0.000000 1.000000 0.000000
vn 0.000000 1.000000 0.000000
vn 0.000000 0.000000 -1.000000
vn 0.000000 0.000000 -1.000000
vn 0.000000 0.000000 -1.000000
vn 0.000000 0.000000 -1.000000
vn 0.000000 -1.000000 0.000000
vn 0.000000 -1.000000 0.000000
vn 0.000000 -1.000000 0.000000
vn 0.000000 -1.000000 0.000000
vn 1.000000 0.000000 0.000000
vn 1.000000 0.000000 0.000000
vn 1.000000 0.000000 0.000000
vn 1.000000 0.000000 0.000000
vn -1.000000 0.000000 0.000000
vn -1.000000 0.000000 0.000000
vn -1.000000 0.000000 0.000000
vn -1.000000 0.000000 0.000000
s off
g pCube4
usemtl initialShadingGroup1
f 9/15/25 10/16/26 12/17/27 11/18/28
f 11/18/29 12/17/30 14/19/31 13/20/32
f 13/20/33 14/19/34 16/21/35 15/22/36
f 15/22/37 16/21/38 10/23/39 9/24/40
f 10/16/41 16/25/42 14/26/43 12/17/44
f 15/27/45 9/15/46 11/18/47 13/28/48
g default
v -12.383238 2.311095 0.085256
v 12.383238 2.311095 0.085256
v -12.383238 3.045976 0.085256
v 12.383238 3.045976 0.085256
v -12.383238 3.045976 -0.163506
v 12.383238 3.045976 -0.163506
v -12.383238 2.311095 -0.163506
v 12.383238 2.311095 -0.163506
vt 0.375000 0.000000
vt 0.625000 0.000000
vt 0.625000 0.250000
vt 0.375000 0.250000
vt 0.625000 0.500000
vt 0.375000 0.500000
vt 0.625000 0.750000
vt 0.375000 0.750000
vt 0.625000 1.000000
vt 0.375000 1.000000
vt 0.875000 0.000000
vt 0.875000 0.250000
vt 0.125000 0.000000
vt 0.125000 0.250000
vn 0.000000 0.000000 1.000000
vn 0.000000 0.000000 1.000000
vn 0.000000 0.000000 1.000000
vn 0.000000 0.000000 1.000000
vn 0.000000 1.000000 0.000000
vn 0.000000 1.000000 0.000000
vn 0.000000 1.000000 0.000000
vn 0.000000 1.000000 0.000000
vn 0.000000 0.000000 -1.000000
vn 0.000000 0.000000 -1.000000
vn 0.000000 0.000000 -1.000000
vn 0.000000 0.000000 -1.000000
vn 0.000000 -1.000000 0.000000
vn 0.000000 -1.000000 0.000000
vn 0.000000 -1.000000 0.000000
vn 0.000000 -1.000000 0.000000
vn 1.000000 0.000000 0.000000
vn 1.000000 0.000000 0.000000
vn 1.000000 0.000000 0.000000
vn 1.000000 0.000000 0.000000
vn -1.000000 0.000000 0.000000
vn -1.000000 0.000000 0.000000
vn -1.000000 0.000000 0.000000
vn -1.000000 0.000000 0.000000
s off
g pCube5
usemtl initialShadingGroup1
f 17/29/49 18/30/50 20/31/51 19/32/52
f 19/32/53 20/31/54 22/33/55 21/34/56
f 21/34/57 22/33/58 24/35/59 23/36/60
f 23/36/61 24/35/62 18/37/63 17/38/64
f 18/30/65 24/39/66 22/40/67 20/31/68
f 23/41/69 17/29/70 19/32/71 21/42/72
g default
v -12.882888 4.924834 0.210329
v 12.882888 4.924834 0.210329
v -12.882888 5.239330 0.210329
v 12.882888 5.239330 0.210329
v -12.882888 5.239330 -0.244967
v 12.882888 5.239330 -0.244967
v -12.882888 4.924834 -0.244967
v 12.882888 4.924834 -0.244967
v -12.882888 5.003522 0.521303
v 12.882888 5.003522 0.521303
v 12.882888 5.160642 0.521303
v -12.882888 5.160642 0.521303
v -12.882888 5.160642 -0.555941
v 12.882888 5.160642 -0.555941
v 12.882888 5.003522 -0.555941
v -12.882888 5.003522 -0.555941
vt 0.375000 0.000000
vt 0.625000 0.000000
vt 0.625000 0.250000
vt 0.375000 0.250000
vt 0.375000 0.250000
vt 0.625000 0.250000
vt 0.625000 0.500000
vt 0.375000 0.500000
vt 0.375000 0.500000
vt 0.625000 0.500000
vt 0.625000 0.750000
vt 0.375000 0.750000
vt 0.375000 0.750000
vt 0.625000 0.750000
vt 0.625000 1.000000
vt 0.375000 1.000000
vt 0.625000 0.000000
vt 0.875000 0.000000
vt 0.875000 0.250000
vt 0.125000 0.000000
vt 0.375000 0.000000
vt 0.125000 0.250000
vn 0.000000 0.000000 1.000000
vn 0.000000 0.000000 1.000000
vn 0.000000 0.000000 1.000000
vn 0.000000 0.000000 1.000000
vn 0.000000 1.000000 0.000000
vn 0.000000 1.000000 0.000000
vn 0.000000 1.000000 0.000000
vn 0.000000 1.000000 0.000000
vn 0.000000 0.000000 -1.000000
vn 0.000000 0.000000 -1.000000
vn 0.000000 0.000000 -1.000000
vn 0.000000 0.000000 -1.000000
vn 0.000000 -1.000000 0.000000
vn 0.000000 -1.000000 0.000000
vn 0.000000 -1.000000 0.000000
vn 0.000000 -1.000000 0.000000
vn 1.000000 0.000000 0.000000
vn 1.000000 0.000000 0.000000
vn 1.000000 0.000000 0.000000
vn 1.000000 0.000000 0.000000
vn -1.000000 0.000000 0.000000
vn -1.000000 0.000000 0.000000
vn -1.000000 0.000000 0.000000
vn -1.000000 0.000000 0.000000
vn 0.000000 -0.969446 0.245306
vn 0.000000 -0.969446 0.245306
vn 0.000000 -0.969446 0.245306
vn 0.000000 -0.969446 0.245306
vn 1.000000 0.000000 0.000000
vn 1.000000 0.000000 0.000000
vn 1.000000 0.000000 0.000000
vn 1.000000 0.000000 0.000000
vn 0.000000 0.969446 0.245306
vn 0.000000 0.969446 0.245306
vn 0.000000 0.969446 0.245306
vn 0.000000 0.969446 0.245306
vn -1.000000 0.000000 0.000000
vn -1.000000 0.000000 0.000000
vn -1.000000 0.000000 0.000000
vn -1.000000 0.000000 0.000000
vn 0.000000 0.969446 -0.245306
vn 0.000000 0.969446 -0.245306
vn 0.000000 0.969446 -0.245306
vn 0.000000 0.969446 -0.245306
vn 1.000000 0.000000 0.000000
vn 1.000000 0.000000 0.000000
vn 1.000000 0.000000 0.000000
vn 1.000000 0.000000 0.000000
vn 0.000000 -0.969446 -0.245306
vn 0.000000 -0.969446 -0.245306
vn 0.000000 -0.969446 -0.245306
vn 0.000000 -0.969446 -0.245306
vn -1.000000 0.000000 0.000000
vn -1.000000 0.000000 0.000000
vn -1.000000 0.000000 0.000000
vn -1.000000 0.000000 0.000000
s off
g pCube6
usemtl initialShadingGroup1
f 33/43/73 34/44/74 35/45/75 36/46/76
f 27/47/77 28/48/78 30/49/79 29/50/80
f 37/51/81 38/52/82 39/53/83 40/54/84
f 31/55/85 32/56/86 26/57/87 25/58/88
f 26/59/89 32/60/90 30/61/91 28/48/92
f 31/62/93 25/63/94 27/47/95 29/64/96
f 25/63/97 26/59/98 34/44/99 33/43/100
f 26/59/101 28/48/102 35/45/103 34/44/104
f 28/48/105 27/47/106 36/46/107 35/45/108
f 27/47/109 25/63/110 33/43/111 36/46/112
f 29/50/113 30/49/114 38/52/115 37/51/116
f 30/49/117 32/56/118 39/53/119 38/52/120
f 32/56/121 31/55/122 40/54/123 39/53/124
f 31/55/125 29/50/126 37/51/127 40/54/128
g default
v 12.358504 4.992194 0.077032
v 12.833743 4.992194 0.077032
v 12.358504 15.388233 0.077032
v 12.833743 15.388233 0.077032
v 12.358504 15.388233 -0.107602
v 12.833743 15.388233 -0.107602
v 12.358504 4.992194 -0.107602
v 12.833743 4.992194 -0.107602
vt 0.375000 0.000000
vt 0.625000 0.000000
vt 0.625000 0.250000
vt 0.375000 0.250000
vt 0.625000 0.500000
vt 0.375000 0.500000
vt 0.625000 0.750000
vt 0.375000 0.750000
vt 0.625000 1.000000
vt 0.375000 1.000000
vt 0.875000 0.000000
vt 0.875000 0.250000
vt 0.125000 0.000000
vt 0.125000 0.250000
vn 0.000000 0.000000 1.000000
vn 0.000000 0.000000 1.000000
vn 0.000000 0.000000 1.000000
vn 0.000000 0.000000 1.000000
vn 0.000000 1.000000 0.000000
vn 0.000000 1.000000 0.000000
vn 0.000000 1.000000 0.000000
vn 0.000000 1.000000 0.000000
vn 0.000000 0.000000 -1.000000
vn 0.000000 0.000000 -1.000000
vn 0.000000 0.000000 -1.000000
vn 0.000000 0.000000 -1.000000
vn 0.000000 -1.000000 0.000000
vn 0.000000 -1.000000 0.000000
vn 0.000000 -1.000000 0.000000
vn 0.000000 -1.000000 0.000000
vn 1.000000 0.000000 0.000000
vn 1.000000 0.000000 0.000000
vn 1.000000 0.000000 0.000000
vn 1.000000 0.000000 0.000000
vn -1.000000 0.000000 0.000000
vn -1.000000 0.000000 0.000000
vn -1.000000 0.000000 0.000000
vn -1.000000 0.000000 0.000000
s off
g pCube7
usemtl initialShadingGroup1
f 41/65/129 42/66/130 44/67/131 43/68/132
f 43/68/133 44/67/134 46/69/135 45/70/136
f 45/70/137 46/69/138 48/71/139 47/72/140
f 47/72/141 48/71/142 42/73/143 41/74/144
f 42/66/145 48/75/146 46/76/147 44/67/148
f 47/77/149 41/65/150 43/68/151 45/78/152
g default
v -12.800643 4.992194 0.077032
v -12.325406 4.992194 0.077032
v -12.800643 15.388233 0.077032
v -12.325406 15.388233 0.077032
v -12.800643 15.388233 -0.107602
v -12.325406 15.388233 -0.107602
v -12.800643 4.992194 -0.107602
v -12.325406 4.992194 -0.107602
vt 0.375000 0.000000
vt 0.625000 0.000000
vt 0.625000 0.250000
vt 0.375000 0.250000
vt 0.625000 0.500000
vt 0.375000 0.500000
vt 0.625000 0.750000
vt 0.375000 0.750000
vt 0.625000 1.000000
vt 0.375000 1.000000
vt 0.875000 0.000000
vt 0.875000 0.250000
vt 0.125000 0.000000
vt 0.125000 0.250000
vn 0.000000 0.000000 1.000000
vn 0.000000 0.000000 1.000000
vn 0.000000 0.000000 1.000000
vn 0.000000 0.000000 1.000000
vn 0.000000 1.000000 0.000000
vn 0.000000 1.000000 0.000000
vn 0.000000 1.000000 0.000000
vn 0.000000 1.000000 0.000000
vn 0.000000 0.000000 -1.000000
vn 0.000000 0.000000 -1.000000
vn 0.000000 0.000000 -1.000000
vn 0.000000 0.000000 -1.000000
vn 0.000000 -1.000000 0.000000
vn 0.000000 -1.000000 0.000000
vn 0.000000 -1.000000 0.000000
vn 0.000000 -1.000000 0.000000
vn 1.000000 0.000000 0.000000
vn 1.000000 0.000000 0.000000
vn 1.000000 0.000000 0.000000
vn 1.000000 0.000000 0.000000
vn -1.000000 0.000000 0.000000
vn -1.000000 0.000000 0.000000
vn -1.000000 0.000000 0.000000
vn -1.000000 0.000000 0.000000
s off
g pCube8
usemtl initialShadingGroup1
f 49/79/153 50/80/154 52/81/155 51/82/156
f 51/82/157 52/81/158 54/83/159 53/84/160
f 53/84/161 54/83/162 56/85/163 55/86/164
f 55/86/165 56/85/166 50/87/167 49/88/168
f 50/80/169 56/89/170 54/90/171 52/81/172
f 55/91/173 49/79/174 51/82/175 53/92/176
g default
v -12.882888 15.056484 0.210329
v 12.882888 15.056484 0.210329
v -12.882888 15.459329 0.210329
v 12.882888 15.459329 0.210329
v -12.882888 15.459329 -0.244967
v 12.882888 15.459329 -0.244967
v -12.882888 15.056484 -0.244967
v 12.882888 15.056484 -0.244967
v -12.882888 15.157278 0.521303
v 12.882888 15.157278 0.521303
v 12.882888 15.358537 0.521303
v -12.882888 15.358537 0.521303
v -12.882888 15.358537 -0.555941
v 12.882888 15.358537 -0.555941
v 12.882888 15.157278 -0.555941
v -12.882888 15.157278 -0.555941
vt 0.375000 0.000000
vt 0.625000 0.000000
vt 0.625000 0.250000
vt 0.375000 0.250000
vt 0.375000 0.250000
vt 0.625000 0.250000
vt 0.625000 0.500000
vt 0.375000 0.500000
vt 0.375000 0.500000
vt 0.625000 0.500000
vt 0.625000 0.750000
vt 0.375000 0.750000
vt 0.375000 0.750000
vt 0.625000 0.750000
vt 0.625000 1.000000
vt 0.375000 1.000000
vt 0.625000 0.000000
vt 0.875000 0.000000
vt 0.875000 0.250000
vt 0.125000 0.000000
vt 0.375000 0.000000
vt 0.125000 0.250000
vn 0.000000 0.000000 1.000000
vn 0.000000 0.000000 1.000000
vn 0.000000 0.000000 1.000000
vn 0.000000 0.000000 1.000000
vn 0.000000 1.000000 0.000000
vn 0.000000 1.000000 0.000000
vn 0.000000 1.000000 0.000000
vn 0.000000 1.000000 0.000000
vn 0.000000 0.000000 -1.000000
vn 0.000000 0.000000 -1.000000
vn 0.000000 0.000000 -1.000000
vn 0.000000 0.000000 -1.000000
vn 0.000000 -1.000000 0.000000
vn 0.000000 -1.000000 0.000000
vn 0.000000 -1.000000 0.000000
vn 0.000000 -1.000000 0.000000
vn 1.000000 0.000000 0.000000
vn 1.000000 0.000000 0.000000
vn 1.000000 0.000000 0.000000
vn 1.000000 0.000000 0.000000
vn -1.000000 0.000000 0.000000
vn -1.000000 0.000000 0.000000
vn -1.000000 0.000000 0.000000
vn -1.000000 0.000000 0.000000
vn 0.000000 -0.951280 0.308329
vn 0.000000 -0.951280 0.308329
vn 0.000000 -0.951280 0.308329
vn 0.000000 -0.951280 0.308329
vn 1.000000 0.000000 0.000000
vn 1.000000 0.000000 0.000000
vn 1.000000 0.000000 0.000000
vn 1.000000 0.000000 0.000000
vn 0.000000 0.951280 0.308329
vn 0.000000 0.951280 0.308329
vn 0.000000 0.951280 0.308329
vn 0.000000 0.951280 0.308329
vn -1.000000 0.000000 0.000000
vn -1.000000 0.000000 0.000000
vn -1.000000 0.000000 0.000000
vn -1.000000 0.000000 0.000000
vn 0.000000 0.951280 -0.308329
vn 0.000000 0.951280 -0.308329
vn 0.000000 0.951280 -0.308329
vn 0.000000 0.951280 -0.308329
vn 1.000000 0.000000 0.000000
vn 1.000000 0.000000 0.000000
vn 1.000000 0.000000 0.000000
vn 1.000000 0.000000 0.000000
vn 0.000000 -0.951280 -0.308329
vn 0.000000 -0.951280 -0.308329
vn 0.000000 -0.951280 -0.308329
vn 0.000000 -0.951280 -0.308329
vn -1.000000 0.000000 0.000000
vn -1.000000 0.000000 0.000000
vn -1.000000 0.000000 0.000000
vn -1.000000 0.000000 0.000000
s off
g pCube9
usemtl initialShadingGroup1
f 65/93/177 66/94/178 67/95/179 68/96/180
f 59/97/181 60/98/182 62/99/183 61/100/184
f 69/101/185 70/102/186 71/103/187 72/104/188
f 63/105/189 64/106/190 58/107/191 57/108/192
f 58/109/193 64/110/194 62/111/195 60/98/196
f 63/112/197 57/113/198 59/97/199 61/114/200
f 57/113/201 58/109/202 66/94/203 65/93/204
f 58/109/205 60/98/206 67/95/207 66/94/208
f 60/98/209 59/97/210 68/96/211 67/95/212
f 59/97/213 57/113/214 65/93/215 68/96/216
f 61/100/217 62/99/218 70/102/219 69/101/220
f 62/99/221 64/106/222 71/103/223 70/102/224
f 64/106/225 63/105/226 72/104/227 71/103/228
f 63/105/229 61/100/230 69/101/231 72/104/232
